HIERARCHY
ROOT root
{
	OFFSET 0.000000 0.000000 0.000000
	CHANNELS 6 Xposition Yposition Zposition Zrotation Yrotation Xrotation
	JOINT lhip
	{
		OFFSET 0.058581 -0.082280 -0.017664
		CHANNELS 3 Zrotation Yrotation Xrotation
		JOINT lknee
		{
			OFFSET 0.043451 -0.386469 0.008037
			CHANNELS 3 Zrotation Yrotation Xrotation
			JOINT lankle
			{
				OFFSET -0.014790 -0.426874 -0.037428
				CHANNELS 3 Zrotation Yrotation Xrotation
				JOINT ltoe
				{
					OFFSET 0.041054 -0.060286 0.122042
					CHANNELS 3 Zrotation Yrotation Xrotation
					End Site
					{
						OFFSET 0.000000 0.000000 0.000000
					}
				}
			}
		}
	}
	JOINT rhip
	{
		OFFSET -0.060310 -0.090513 -0.013543
		CHANNELS 3 Zrotation Yrotation Xrotation
		JOINT rknee
		{
			OFFSET -0.043257 -0.383688 -0.004843
			CHANNELS 3 Zrotation Yrotation Xrotation
			JOINT rankle
			{
				OFFSET 0.019056 -0.420046 -0.034562
				CHANNELS 3 Zrotation Yrotation Xrotation
				JOINT rtoe
				{
					OFFSET -0.034840 -0.062106 0.130323
					CHANNELS 3 Zrotation Yrotation Xrotation
					End Site
					{
						OFFSET 0.000000 0.000000 0.000000
					}
				}
			}
		}
	}
	JOINT lowerback
	{
		OFFSET 0.004439 0.124404 -0.038385
		CHANNELS 3 Zrotation Yrotation Xrotation
		JOINT upperback
		{
			OFFSET 0.004488 0.137956 0.026820
			CHANNELS 3 Zrotation Yrotation Xrotation
			JOINT chest
			{
				OFFSET -0.002265 0.056032 0.002855
				CHANNELS 3 Zrotation Yrotation Xrotation
				JOINT lowerneck
				{
					OFFSET -0.013390 0.211636 -0.033468
					CHANNELS 3 Zrotation Yrotation Xrotation
					JOINT upperneck
					{
						OFFSET 0.010113 0.088937 0.050410
						CHANNELS 3 Zrotation Yrotation Xrotation
						End Site
						{
							OFFSET 0.000000 0.000000 0.000000
						}
					}
				}
				JOINT lclavicle
				{
					OFFSET 0.071702 0.114000 -0.018898
					CHANNELS 3 Zrotation Yrotation Xrotation
					JOINT lshoulder
					{
						OFFSET 0.122921 0.045205 -0.019046
						CHANNELS 3 Zrotation Yrotation Xrotation
						JOINT lelbow
						{
							OFFSET 0.255332 -0.015649 -0.022946
							CHANNELS 3 Zrotation Yrotation Xrotation
							JOINT lwrist
							{
								OFFSET 0.265709 0.012698 -0.007375
								CHANNELS 3 Zrotation Yrotation Xrotation
								End Site
								{
									OFFSET 0.000000 0.000000 0.000000
								}
							}
						}
					}
				}
				JOINT rclavicle
				{
					OFFSET -0.082954 0.112472 -0.023707
					CHANNELS 3 Zrotation Yrotation Xrotation
					JOINT rshoulder
					{
						OFFSET -0.113228 0.046853 -0.008472
						CHANNELS 3 Zrotation Yrotation Xrotation
						JOINT relbow
						{
							OFFSET -0.260127 -0.014369 -0.031269
							CHANNELS 3 Zrotation Yrotation Xrotation
							JOINT rwrist
							{
								OFFSET -0.269108 0.006794 -0.006027
								CHANNELS 3 Zrotation Yrotation Xrotation
								End Site
								{
									OFFSET 0.000000 0.000000 0.000000
								}
							}
						}
					}
				}
			}
		}
	}
}
MOTION
Frames: 8
Frame Time: 0.033333
-0.448664 0.353001 0.980321 -91.400359 -2.326850 93.098926 -2.810704 -7.787810 -17.371713 -4.962600 -2.392861 18.768742 12.289648 15.965337 -7.774556 0.000000 -0.000000 0.000000 -5.441458 -2.555916 1.416852 -4.146906 0.283885 60.067084 6.827008 -12.922215 11.380142 0.000000 -0.000000 0.000000 -5.636815 7.538967 2.143275 0.469414 2.729322 1.291001 -1.691515 3.342402 4.918268 3.431152 -10.715862 -0.705129 4.350727 -8.359070 8.227267 -16.914334 16.183072 1.342485 -45.261214 5.727312 17.319164 -130.700532 -54.939730 167.360021 24.781928 -16.133444 -0.587663 15.463430 -9.260245 -6.163368 63.559103 -9.817694 23.389966 135.760875 69.745199 163.628107 -23.436024 15.563399 -6.977304 
-0.522927 0.352550 0.961206 -91.088497 -2.645706 92.012534 -4.578351 -6.111855 -13.446803 -5.890855 -4.225011 24.123272 14.178518 18.741745 -15.535920 0.000000 -0.000000 0.000000 -6.510946 -2.158078 -5.285287 -3.759403 0.080589 69.906092 6.179696 -15.419283 6.057101 0.000000 -0.000000 0.000000 -6.021595 5.451105 4.462533 0.348126 2.205619 0.402679 -1.888711 1.820526 6.724601 4.555340 -9.373918 -3.936091 3.723167 -7.301303 8.949105 -20.657187 14.636076 -0.551365 -46.947773 1.820103 17.608859 -128.478634 -58.073443 165.401022 25.102926 -15.811045 0.572703 18.696101 -11.197809 -7.092189 60.424298 -13.471124 22.297492 126.838556 75.028152 154.940569 -23.604167 14.677597 -3.492337 
-0.594724 0.353177 0.957880 -91.185530 -2.405080 91.798001 -4.830257 -4.542394 -7.761114 -6.624136 -6.104614 23.901979 13.122510 19.693348 -18.130801 0.000000 -0.000000 0.000000 -6.219315 -1.080353 -14.185891 -3.773323 -0.540411 75.365905 5.563443 -17.050100 2.154054 0.000000 -0.000000 0.000000 -5.895778 2.711480 5.915257 0.277242 1.732827 -0.080667 -1.972528 0.056094 7.346008 4.070855 -8.026885 -4.640600 3.448527 -5.427280 9.034528 -22.191487 13.606221 -0.968466 -50.722232 -2.489153 17.762240 -126.705262 -61.102786 163.923506 25.169400 -15.316784 1.461645 19.409111 -13.075873 -6.636451 57.949283 -16.585740 20.948764 112.457337 77.902104 139.924875 -23.987265 14.185868 -2.568668 
-0.666825 0.352914 0.969265 -90.152918 -1.445940 92.226460 -4.191649 -2.292825 -2.003799 -6.380920 -9.503609 21.804811 9.932643 18.441496 -16.771779 0.000000 -0.000000 0.000000 -4.891144 -0.894742 -22.347795 -4.568742 -1.820616 73.979364 5.206370 -17.064913 -0.807060 0.000000 -0.000000 0.000000 -4.213256 -1.244872 6.357851 0.060095 0.410048 -0.354304 -2.122716 -1.944515 7.329519 2.001942 -7.059825 -3.656488 3.034875 -2.070803 8.295931 -22.948930 12.671378 -1.054820 -53.079183 -5.002294 17.794480 -128.956474 -62.201333 165.514530 25.681496 -15.618838 1.798131 18.132510 -14.444659 -6.122332 54.639396 -19.838389 19.928298 106.991746 76.356931 132.821057 -24.044604 14.457658 -4.025778 
-0.740624 0.353690 0.989696 -88.415684 -0.144475 92.805832 -2.290692 -0.264636 3.321298 -5.789755 -12.322085 19.055673 5.781473 16.216110 -11.286427 0.000000 -0.000000 0.000000 -3.600233 -0.554915 -27.780704 -5.103002 -4.672990 65.669053 5.311395 -16.425532 -2.133353 0.000000 -0.000000 0.000000 -1.919476 -5.265854 6.275001 0.132430 -1.237364 -0.320534 -2.095797 -3.955727 6.787833 -0.588062 -6.086735 -2.237177 2.385914 1.421083 6.920894 -22.677728 11.874321 -1.005317 -53.965317 -6.329791 17.794029 -132.000519 -61.844923 168.374556 26.090880 -15.989854 1.618370 15.848682 -15.768789 -5.512115 51.059492 -22.609513 18.974616 109.694818 73.386896 135.003484 -23.878570 15.597923 -5.706524 
-0.816033 0.355295 1.011926 -87.104248 1.122625 94.286902 -0.052358 0.816787 6.755405 -4.993909 -13.047383 16.442594 1.941236 14.738269 -1.730121 0.000000 -0.000000 0.000000 -2.883172 0.740734 -31.208463 -4.470114 -8.694801 51.725465 5.061624 -16.032564 -0.879602 0.000000 -0.000000 0.000000 0.243754 -8.639067 4.422557 0.583675 -2.553150 0.421177 -1.940667 -5.516385 6.098161 -2.714087 -4.890025 -1.131677 1.653876 4.444736 5.155371 -21.625723 12.192880 -0.467166 -54.147994 -7.401254 18.037900 -134.338500 -60.731270 170.841586 26.055205 -16.623155 1.212045 13.410968 -17.520976 -4.172479 48.147274 -23.589272 18.228664 112.722414 71.153020 138.048631 -23.693303 16.371265 -7.895293 
-0.893344 0.356477 1.029613 -86.759866 2.162515 96.190370 1.655281 1.705860 8.536933 -4.195628 -11.565614 15.307872 -0.599604 13.897742 9.377540 0.000000 -0.000000 0.000000 -2.067227 2.187400 -32.373132 -1.785511 -10.232615 33.851734 4.669887 -14.999606 2.880643 0.000000 -0.000000 0.000000 2.272094 -10.801584 1.319845 1.031625 -3.504071 1.808414 -1.693574 -6.453465 5.401105 -4.554965 -4.156289 -0.176485 1.223850 7.343552 3.130705 -20.373077 13.175080 0.386460 -54.172075 -7.835009 18.235255 -135.749489 -59.156535 172.515011 25.524409 -17.172076 0.982633 11.098235 -19.111095 -2.198401 46.112921 -23.106274 17.454256 115.627422 69.925921 140.822356 -23.103703 16.182619 -9.907871 
-0.972585 0.357645 1.038163 -86.765413 2.703388 97.426211 2.307787 1.924870 8.716722 -3.851675 -9.237177 18.836494 -1.446785 13.426273 17.631329 0.000000 -0.000000 0.000000 -1.454483 3.266929 -30.906807 1.436039 -8.477744 16.978768 5.026995 -13.242035 8.261924 0.000000 -0.000000 0.000000 3.810218 -11.576940 -1.637547 1.170828 -4.335364 3.299436 -1.657216 -6.759269 4.909763 -5.887896 -4.293616 0.978577 1.287656 9.770687 1.362560 -19.234672 14.263343 1.292936 -54.236622 -7.643856 18.171919 -136.359420 -57.542757 173.333544 25.010586 -17.424153 0.193406 9.221804 -20.170712 -0.202369 45.193438 -22.042858 16.446793 117.182011 69.627249 142.513108 -22.549500 16.401838 -11.156770 
